<svg xmlns="http://www.w3.org/2000/svg" viewBox="0 0 24 24" id="responsive"><defs><linearGradient id="a" x1="5.116" x2="19.59" y1="19.177" y2="4.703" gradientUnits="userSpaceOnUse"><stop offset="0" stop-color="#5433ff"></stop><stop offset="1" stop-color="#20bdff"></stop></linearGradient></defs><path fill="url(#a)" d="m20,10.25h-.25v-4.25c0-1.517-1.233-2.75-2.75-2.75H5c-1.517,0-2.75,1.233-2.75,2.75v8c0,1.517,1.233,2.75,2.75,2.75h3.25v2.5h-1.25c-.414,0-.75.336-.75.75s.336.75.75.75h7c.414,0,.75-.336.75-.75s-.336-.75-.75-.75h-1.25v-2.5h2.5v2.25c0,.965.785,1.75,1.75,1.75h3c.965,0,1.75-.785,1.75-1.75v-7c0-.965-.785-1.75-1.75-1.75Zm-8.75,9h-1.5v-2.5h1.5v2.5Zm-6.25-4c-.689,0-1.25-.561-1.25-1.25V6c0-.689.561-1.25,1.25-1.25h12c.689,0,1.25.561,1.25,1.25v4.25h-1.25c-.965,0-1.75.785-1.75,1.75v3.25H5Zm15.25,3.75c0,.138-.112.25-.25.25h-3c-.138,0-.25-.112-.25-.25v-7c0-.138.112-.25.25-.25h3c.138,0,.25.112.25.25v7Z"></path></svg>