<svg xmlns="http://www.w3.org/2000/svg" viewBox="0 0 100 100" id="responsive"><path d="M89 36h-6v-8c0-4.41-3.59-8-8-8H13c-4.41 0-8 3.59-8 8v34c0 4.41 3.59 8 8 8h23.56l-1.2 6H31c-1.1 0-2 .9-2 2s.9 2 2 2h26c1.1 0 2-.9 2-2s-.9-2-2-2h-4.36l-1.2-6H65v4c0 3.31 2.69 6 6 6h18c3.31 0 6-2.69 6-6V42c0-3.31-2.69-6-6-6zM39.44 76l1.2-6h6.72l1.2 6h-9.12zM65 66H13c-2.21 0-4-1.79-4-4v-2h56v6zm0-24v14H9V28c0-2.21 1.79-4 4-4h62c2.21 0 4 1.79 4 4v8h-8c-3.31 0-6 2.69-6 6zm26 32c0 1.1-.9 2-2 2H71c-1.1 0-2-.9-2-2v-3h22v3zm0-7H69V49h22v18zm0-22H69v-3c0-1.1.9-2 2-2h18c1.1 0 2 .9 2 2v3z"></path></svg>