<?xml version="1.0" standalone="no"?>
<!DOCTYPE svg PUBLIC "-//W3C//DTD SVG 20010904//EN"
 "http://www.w3.org/TR/2001/REC-SVG-20010904/DTD/svg10.dtd">
<svg version="1.0" xmlns="http://www.w3.org/2000/svg"
 width="500.000000pt" height="500.000000pt" viewBox="0 0 500.000000 500.000000"
 preserveAspectRatio="xMidYMid meet">
<metadata>
Created by potrace 1.10, written by Peter Selinger 2001-2011
</metadata>
<g transform="translate(0.000000,500.000000) scale(0.050000,-0.050000)"
fill="#d10acb" stroke="none">
<path d="M2980 7848 c-728 -133 -1286 -1012 -1112 -1750 189 -803 1101 -1963
2372 -3019 513 -425 438 -398 637 -230 53 44 129 108 168 141 l72 60 13 692
12 693 -89 52 c-154 91 -291 306 -342 539 l-27 124 -4 -270 c-4 -297 -14 -356
-65 -388 -85 -53 -104 20 -115 432 -9 333 -14 385 -44 403 -72 45 -84 -9 -95
-418 -11 -399 -17 -428 -94 -429 -64 -1 -77 66 -87 458 -10 386 -11 392 -54
398 -60 9 -64 -15 -70 -438 -6 -356 -19 -418 -87 -418 -78 0 -89 51 -89 428 0
378 -15 454 -84 427 -43 -16 -56 -123 -56 -477 0 -289 -3 -314 -41 -349 -112
-102 -135 9 -143 701 -7 569 -6 572 174 790 50 61 113 142 139 180 l49 70 -12
735 -12 734 -162 64 c-160 62 -571 98 -752 65z"/>
<path d="M5800 7829 c-445 -117 -862 -496 -1033 -940 -69 -179 -70 -179 -125
-34 -59 154 -164 338 -247 434 l-69 79 -11 -546 -11 -547 169 -223 c177 -234
226 -344 228 -511 l1 -91 37 115 c297 928 1345 446 1163 -535 -41 -220 -244
-527 -379 -572 -22 -8 -24 -105 -12 -533 l14 -523 250 234 c871 816 1482 1635
1697 2274 366 1087 -602 2198 -1672 1919z"/>
</g>
</svg>
