<?xml version="1.0" standalone="no"?>
<!DOCTYPE svg PUBLIC "-//W3C//DTD SVG 20010904//EN"
 "http://www.w3.org/TR/2001/REC-SVG-20010904/DTD/svg10.dtd">
<svg version="1.0" xmlns="http://www.w3.org/2000/svg"
 width="300.000000pt" height="113.000000pt" viewBox="0 0 300.000000 113.000000"
 preserveAspectRatio="xMidYMid meet">
<metadata>
Created by potrace 1.10, written by Peter Selinger 2001-2011
</metadata>
<g transform="translate(0.000000,113.000000) scale(0.100000,-0.100000)"
fill="#ffffff" stroke="none">
<path d="M2753 723 c-8 -3 -13 -23 -13 -49 0 -24 -9 -86 -20 -136 -24 -108
-23 -151 4 -156 24 -5 44 14 29 29 -7 7 -2 51 18 147 16 75 28 140 29 144 0
11 -33 26 -47 21z"/>
<path d="M222 673 c-18 -9 -42 -27 -52 -41 -36 -45 -17 -125 25 -108 11 4 14
13 9 31 -12 46 4 75 50 96 79 35 162 -3 133 -60 -13 -26 -65 -47 -80 -32 -6 6
-3 23 7 42 20 41 21 39 -8 39 -33 0 -37 -9 -62 -120 -11 -52 -24 -102 -28
-112 -6 -13 0 -17 33 -23 62 -10 121 3 153 35 35 35 37 80 6 111 -16 15 -19
23 -10 26 25 9 42 35 42 64 0 22 -8 34 -32 49 -41 25 -138 27 -186 3z m132
-153 c20 -7 26 -17 26 -38 0 -37 -27 -61 -75 -69 -34 -6 -38 -4 -31 12 4 11
10 38 13 62 6 46 18 52 67 33z"/>
<path d="M717 623 c-3 -5 0 -59 7 -121 9 -87 9 -115 0 -123 -34 -28 -15 -87
24 -75 17 6 20 12 15 42 -5 30 -1 40 41 84 74 79 109 179 69 194 -23 9 -35 -6
-39 -49 -2 -20 -16 -61 -31 -92 l-28 -55 -3 89 c-2 68 -6 91 -19 101 -19 14
-30 15 -36 5z"/>
<path d="M1100 622 c-8 -2 -23 -11 -32 -20 -16 -14 -18 -13 -18 1 0 10 -8 17
-18 17 -15 0 -22 -19 -40 -116 -12 -65 -21 -118 -19 -120 11 -12 47 12 51 35
3 14 10 52 16 83 12 62 30 88 61 88 30 0 32 -20 10 -111 -11 -46 -17 -87 -13
-90 4 -4 16 -3 27 1 16 6 23 23 33 82 14 82 33 118 63 118 30 0 33 -24 15
-107 -13 -58 -14 -79 -5 -90 20 -23 44 -11 45 22 1 17 7 62 14 102 11 59 12
74 1 87 -17 21 -84 21 -101 1 -11 -13 -15 -13 -29 -2 -21 18 -43 25 -61 19z"/>
<path d="M1410 613 c-46 -24 -73 -74 -74 -135 -1 -43 3 -53 28 -75 48 -41 126
-19 126 35 l0 25 -23 -21 c-42 -40 -87 -20 -87 38 0 16 6 21 23 20 49 -4 69 1
92 25 62 61 -4 129 -85 88z m58 -40 c3 -23 -30 -53 -60 -53 -24 0 -23 21 3 54
24 31 53 31 57 -1z"/>
<path d="M1685 616 c-38 -16 -62 -51 -74 -107 -20 -87 19 -145 81 -121 22 8
35 8 48 0 27 -17 52 -3 45 25 -4 13 1 61 9 107 20 104 20 100 -6 98 -13 0 -34
2 -48 5 -14 4 -39 1 -55 -7z m63 -24 c10 -7 10 -22 -2 -76 -19 -92 -60 -134
-86 -87 -9 18 -8 42 6 109 5 26 38 62 57 62 6 0 18 -4 25 -8z"/>
<path d="M2365 623 c-80 -19 -126 -163 -70 -218 46 -47 134 -21 135 39 0 19
-1 18 -23 -2 -13 -12 -35 -22 -49 -22 -27 0 -38 16 -38 55 0 20 5 23 35 23 85
0 138 96 68 123 -26 9 -26 10 -58 2z m43 -49 c4 -25 -15 -42 -56 -50 -27 -6
-30 -4 -25 14 13 53 75 80 81 36z"/>
<path d="M2555 621 c-71 -31 -113 -173 -65 -221 22 -22 60 -26 78 -8 9 9 17 9
36 -1 30 -17 48 -7 41 22 -5 19 14 135 31 190 4 14 0 17 -23 16 -15 -1 -39 1
-53 4 -14 3 -34 2 -45 -2z m54 -30 c12 -8 12 -19 2 -73 -16 -78 -35 -110 -64
-106 -17 2 -23 11 -25 37 -5 50 6 95 29 125 22 27 35 31 58 17z"/>
<path d="M496 605 c-3 -8 -11 -54 -18 -101 -12 -85 -12 -87 11 -105 28 -23 49
-24 78 -4 19 13 22 13 27 -1 4 -9 15 -14 28 -12 20 3 23 8 20 38 -2 19 4 68
13 108 19 93 19 92 -8 92 -22 0 -25 -7 -37 -72 -18 -105 -34 -140 -62 -136
-36 5 -36 75 -2 191 4 13 -1 17 -19 17 -14 0 -27 -7 -31 -15z"/>
<path d="M1949 618 c-14 -54 -45 -225 -40 -229 3 -4 15 -3 26 1 16 6 23 23 33
82 14 82 33 118 63 118 30 0 33 -24 15 -106 -21 -98 -21 -102 8 -97 20 4 25
14 36 76 16 92 28 116 57 124 41 10 46 -7 27 -95 -19 -90 -15 -115 18 -110 18
2 22 9 20 27 -1 13 4 55 12 94 19 93 11 117 -43 117 -24 0 -46 -7 -56 -17 -16
-16 -18 -16 -27 0 -12 22 -75 22 -100 0 -18 -16 -18 -16 -12 0 4 13 1 17 -15
17 -12 0 -21 -1 -22 -2z"/>
</g>
</svg>
