 <svg  version="1.0" xmlns="http://www.w3.org/2000/svg"  width="300.000000pt" height="300.000000pt" viewBox="0 0 300.000000 300.000000"  preserveAspectRatio="xMidYMid meet">  <g transform="translate(0.000000,300.000000) scale(0.100000,-0.100000)" fill="#04aa46" stroke="none"> <path d="M973 2275 c-183 -51 -318 -206 -354 -405 -30 -168 57 -381 261 -642 90 -115 399 -423 554 -551 110 -92 131 -105 145 -94 10 6 43 32 74 57 l57 45 0 230 0 230 -35 22 c-39 26 -84 97 -101 162 -12 45 -13 45 -13 -50 -1 -73 -5 -100 -16 -109 -12 -10 -18 -10 -30 0 -12 10 -15 39 -15 140 0 106 -3 129 -15 134 -21 8 -22 1 -30 -144 -6 -127 -12 -147 -38 -137 -12 4 -16 35 -22 134 -8 151 -9 160 -30 143 -12 -10 -15 -39 -15 -140 0 -109 -2 -129 -16 -134 -36 -14 -44 11 -44 145 0 122 -1 129 -20 129 -19 0 -20 -7 -20 -123 0 -128 -11 -167 -42 -155 -17 7 -28 128 -28 300 0 111 5 126 75 223 l50 70 -3 242 -3 242 -56 21 c-75 28 -200 35 -270 15z"/> <path d="M1950 2280 c-139 -29 -277 -143 -345 -285 -20 -41 -38 -75 -40 -75 -2 0 -19 33 -39 73 -19 39 -46 86 -60 102 l-25 30 -1 -187 0 -188 55 -71 c49 -63 75 -118 75 -158 0 -8 14 14 31 48 70 139 207 162 302 51 112 -131 86 -367 -51 -460 -22 -15 -22 -17 -15 -182 3 -93 9 -168 13 -168 4 0 81 75 171 168 279 283 423 492 478 692 25 89 26 151 5 234 -45 176 -160 310 -309 360 -61 20 -184 28 -245 16z"/> </g> </svg> 