<?xml version="1.0" standalone="no"?>
<!DOCTYPE svg PUBLIC "-//W3C//DTD SVG 20010904//EN"
 "http://www.w3.org/TR/2001/REC-SVG-20010904/DTD/svg10.dtd">
<svg version="1.0" xmlns="http://www.w3.org/2000/svg"
 width="900.000000pt" height="900.000000pt" viewBox="0 0 900.000000 900.000000"
 preserveAspectRatio="xMidYMid meet">
<metadata>
Created by potrace 1.10, written by Peter Selinger 2001-2011
</metadata>
<g transform="translate(0.000000,900.000000) scale(0.100000,-0.100000)"
fill="#00bf62" stroke="none">
<path d="M2990 6833 c-338 -64 -624 -244 -843 -530 -26 -34 -47 -65 -47 -69 0
-4 -6 -15 -14 -23 -20 -22 -101 -178 -132 -254 -48 -119 -67 -183 -108 -374
-37 -170 -8 -467 67 -693 26 -76 105 -266 131 -317 15 -26 26 -51 26 -55 0 -4
20 -41 45 -81 25 -41 45 -77 45 -80 0 -19 241 -380 332 -498 35 -45 73 -95 86
-113 12 -17 28 -38 35 -46 7 -9 33 -40 56 -70 76 -96 260 -307 375 -430 226
-242 601 -612 759 -750 28 -25 81 -72 117 -106 36 -33 115 -102 175 -154 61
-52 117 -101 126 -109 9 -9 47 -41 84 -71 37 -30 109 -89 159 -130 126 -105
213 -170 225 -170 6 0 39 23 73 51 35 28 95 76 133 107 39 31 72 59 75 62 3 3
27 24 55 45 27 22 57 47 66 56 14 14 17 87 23 707 l7 691 -30 15 c-150 78
-268 218 -345 410 -18 43 -55 191 -58 227 -3 41 -16 -250 -17 -388 0 -77 -6
-144 -13 -160 -15 -34 -47 -62 -71 -63 -32 0 -73 31 -85 64 -6 18 -13 181 -17
397 l-7 366 -30 17 c-26 16 -31 16 -52 2 -21 -13 -24 -24 -30 -123 -3 -59 -9
-234 -12 -388 l-7 -279 -28 -28 c-35 -35 -69 -36 -106 0 l-30 27 -6 250 c-4
138 -7 305 -7 373 0 68 -5 132 -10 142 -14 26 -44 41 -65 34 -40 -16 -45 -51
-46 -341 0 -153 -4 -320 -7 -371 -7 -89 -9 -95 -37 -118 -38 -30 -62 -30 -99
-1 -28 23 -30 29 -37 128 -4 57 -8 226 -9 374 0 149 -3 280 -6 291 -9 33 -49
48 -78 28 -27 -17 -28 -32 -42 -444 -9 -255 -10 -288 -12 -322 -2 -33 -48 -78
-80 -78 -37 0 -79 50 -85 101 -12 95 -36 1017 -28 1059 12 68 30 128 41 135 6
3 10 15 10 26 0 10 57 94 126 186 148 195 135 178 175 226 28 33 31 42 25 80
-3 23 -11 350 -16 727 -11 683 -11 685 -32 701 -12 9 -35 21 -52 27 -17 5 -76
26 -131 45 -55 19 -131 41 -170 48 -103 18 -423 20 -515 2z"/>
<path d="M5870 6830 c-97 -19 -107 -21 -245 -73 -110 -40 -287 -137 -352 -192
-163 -139 -261 -245 -349 -378 -73 -110 -145 -247 -177 -337 -49 -140 -65
-142 -117 -15 -51 125 -61 148 -71 165 -5 8 -12 22 -16 30 -33 71 -187 299
-212 315 -13 7 -21 -280 -21 -707 0 -372 1 -398 18 -415 46 -44 291 -385 317
-438 20 -43 32 -91 41 -169 14 -109 20 -131 28 -105 49 153 74 209 131 289 58
82 113 137 185 185 83 55 163 78 265 78 190 0 336 -88 463 -278 73 -110 99
-172 137 -330 27 -108 24 -352 -5 -470 -12 -49 -26 -94 -31 -99 -5 -6 -9 -16
-9 -24 0 -23 -56 -136 -95 -193 -50 -72 -141 -160 -210 -201 l-57 -33 6 -190
c3 -104 9 -332 12 -505 3 -173 10 -319 14 -324 16 -17 614 569 876 859 118
131 233 263 279 320 21 28 42 52 45 55 11 10 177 227 225 295 115 162 138 196
212 320 100 165 170 298 218 410 9 22 22 54 29 70 43 99 81 223 121 395 27
116 25 368 -4 485 -36 144 -71 256 -97 312 -13 28 -24 55 -24 60 0 25 -122
235 -185 319 -50 67 -189 208 -255 259 -60 46 -185 125 -199 125 -5 0 -14 7
-21 15 -7 8 -20 15 -29 15 -9 0 -28 6 -43 14 -48 25 -211 74 -300 90 -118 22
-371 19 -498 -4z"/>
</g>
</svg>
